<svg xmlns="http://www.w3.org/2000/svg" xmlns:svg="http://www.w3.org/2000/svg" id="svg2" width="200" height="200" version="1.1" viewBox="0 0 200 200"><g id="layer1" transform="translate(0,-852.36216)"><g id="text4144" style="font-style:normal;font-variant:normal;font-weight:700;font-stretch:normal;font-size:50px;line-height:125%;font-family:Sans;-inkscape-font-specification:'Sans, Bold';text-align:start;letter-spacing:0;word-spacing:0;writing-mode:lr-tb;text-anchor:start;fill:#000;fill-opacity:1;stroke:none;stroke-width:1px;stroke-linecap:butt;stroke-linejoin:miter;stroke-opacity:1"><path id="path4215" d="m 17.303642,935.20844 33.59375,0 0,7.10449 -12.084961,0 0,29.3457 -9.399414,0 0,-29.3457 -12.109375,0 0,-7.10449 z" style="font-style:normal;font-variant:normal;font-weight:700;font-stretch:normal;font-size:50px;line-height:125%;font-family:Sans;-inkscape-font-specification:'Sans, Bold';text-align:start;writing-mode:lr-tb;text-anchor:start"/><path id="path4217" d="m 55.731377,935.20844 9.399414,0 0,13.8916 13.867187,0 0,-13.8916 9.399414,0 0,36.45019 -9.399414,0 0,-15.4541 -13.867187,0 0,15.4541 -9.399414,0 0,-36.45019 z" style="font-style:normal;font-variant:normal;font-weight:700;font-stretch:normal;font-size:50px;line-height:125%;font-family:Sans;-inkscape-font-specification:'Sans, Bold';text-align:start;writing-mode:lr-tb;text-anchor:start"/><path id="path4219" d="m 97.528252,935.20844 25.366208,0 0,7.10449 -15.96679,0 0,6.78711 15.01464,0 0,7.10449 -15.01464,0 0,8.34961 16.5039,0 0,7.10449 -25.903318,0 0,-36.45019 z" style="font-style:normal;font-variant:normal;font-weight:700;font-stretch:normal;font-size:50px;line-height:125%;font-family:Sans;-inkscape-font-specification:'Sans, Bold';text-align:start;writing-mode:lr-tb;text-anchor:start"/><path id="path4221" d="m 131.70794,935.20844 9.39941,0 0,36.45019 -9.39941,0 0,-36.45019 z" style="font-style:normal;font-variant:normal;font-weight:700;font-stretch:normal;font-size:50px;line-height:125%;font-family:Sans;-inkscape-font-specification:'Sans, Bold';text-align:start;writing-mode:lr-tb;text-anchor:start"/><path id="path4223" d="m 172.38177,965.01801 -14.69727,0 -2.31933,6.64062 -9.44825,0 13.50098,-36.45019 11.20605,0 13.50098,36.45019 -9.44824,0 -2.29492,-6.64062 z m -12.35352,-6.7627 9.98535,0 -4.98047,-14.50195 -5.00488,14.50195 z" style="font-style:normal;font-variant:normal;font-weight:700;font-stretch:normal;font-size:50px;line-height:125%;font-family:Sans;-inkscape-font-specification:'Sans, Bold';text-align:start;writing-mode:lr-tb;text-anchor:start"/></g></g></svg>